<svg width="11" height="11" viewBox="0 0 11 11" fill="none" xmlns="http://www.w3.org/2000/svg">
<path d="M5.00396 10.4059C4.88396 10.4059 4.78196 10.3639 4.69796 10.2799C4.61396 10.1959 4.57196 10.0939 4.57196 9.97395V6.46395H1.11596C0.99596 6.46395 0.89396 6.42195 0.80996 6.33795C0.72596 6.25395 0.68396 6.14595 0.68396 6.01395V5.07795C0.68396 4.94595 0.72596 4.84395 0.80996 4.77195C0.89396 4.68795 0.99596 4.64595 1.11596 4.64595H4.57196V1.22595C4.57196 1.10595 4.61396 1.00395 4.69796 0.919946C4.78196 0.835945 4.88396 0.793945 5.00396 0.793945H6.04796C6.17996 0.793945 6.28196 0.835945 6.35396 0.919946C6.43796 1.00395 6.47996 1.10595 6.47996 1.22595V4.64595H9.93596C10.056 4.64595 10.158 4.68795 10.242 4.77195C10.326 4.84395 10.368 4.94595 10.368 5.07795V6.01395C10.368 6.14595 10.326 6.25395 10.242 6.33795C10.158 6.42195 10.056 6.46395 9.93596 6.46395H6.47996V9.97395C6.47996 10.0939 6.43796 10.1959 6.35396 10.2799C6.28196 10.3639 6.17996 10.4059 6.04796 10.4059H5.00396Z" fill="black"/>
</svg>
